<?xml version="1.0" encoding="UTF-8" standalone="no"?>
<!-- Created with Inkscape (http://www.inkscape.org/) -->

<svg
   width="300"
   height="300"
   viewBox="0 0 79.374998 79.374998"
   version="1.1"
   id="svg1"
   xml:space="preserve"
   inkscape:version="1.3.2 (091e20e, 2023-11-25)"
   sodipodi:docname="perl onion.svg"
   xmlns:inkscape="http://www.inkscape.org/namespaces/inkscape"
   xmlns:sodipodi="http://sodipodi.sourceforge.net/DTD/sodipodi-0.dtd"
   xmlns="http://www.w3.org/2000/svg"
   xmlns:svg="http://www.w3.org/2000/svg"><sodipodi:namedview
     id="namedview1"
     pagecolor="#ffffff"
     bordercolor="#000000"
     borderopacity="0.25"
     inkscape:showpageshadow="2"
     inkscape:pageopacity="0.0"
     inkscape:pagecheckerboard="0"
     inkscape:deskcolor="#d1d1d1"
     inkscape:document-units="px"
     inkscape:zoom="1.1893044"
     inkscape:cx="187.50456"
     inkscape:cy="152.61021"
     inkscape:window-width="1512"
     inkscape:window-height="916"
     inkscape:window-x="0"
     inkscape:window-y="72"
     inkscape:window-maximized="1"
     inkscape:current-layer="layer1" /><defs
     id="defs1"><clipPath
       clipPathUnits="userSpaceOnUse"
       id="clipPath132"><path
         d="M 21,21 H 536.906 V 746.669 H 21 Z"
         id="path132" /></clipPath><clipPath
       clipPathUnits="userSpaceOnUse"
       id="clipPath134"><path
         d="M 21,21 H 536.906 V 746.669 H 21 Z"
         id="path134" /></clipPath><clipPath
       clipPathUnits="userSpaceOnUse"
       id="clipPath136"><path
         d="M 21,21 H 536.906 V 746.669 H 21 Z"
         id="path136" /></clipPath><clipPath
       clipPathUnits="userSpaceOnUse"
       id="clipPath140"><path
         d="M 21,21 H 536.906 V 746.669 H 21 Z"
         id="path140" /></clipPath><clipPath
       clipPathUnits="userSpaceOnUse"
       id="clipPath142"><path
         d="M 21,21 H 536.906 V 746.669 H 21 Z"
         id="path142" /></clipPath><clipPath
       clipPathUnits="userSpaceOnUse"
       id="clipPath138"><path
         d="M 21,21 H 536.906 V 746.669 H 21 Z"
         id="path138" /></clipPath></defs><g
     inkscape:label="Layer 1"
     inkscape:groupmode="layer"
     id="layer1"><g
       id="g2"
       style="display:inline"
       transform="scale(3.4090909)"><circle
         style="fill:#4e5d85;fill-opacity:1;stroke-width:0.829046"
         id="path1"
         cx="11.641666"
         cy="11.641666"
         r="11.641666" /><g
         id="g1"
         style="fill:#ffffff;fill-opacity:1"
         transform="matrix(1.0991777,0,0,1.0991777,-11.528484,-27.867083)"><path
           id="path131"
           d="m 403.455,95.1123 c -0.989,6.242 -7.539,10.286 -12.416,13.336 -2.13,1.332 -5.584,3.068 -6.031,5.869 -0.185,1.158 -0.178,2.355 -0.216,3.524 -0.016,0.459 -0.023,0.921 -0.064,1.378 -0.053,0.591 -0.654,-0.137 -0.984,0.379 -0.816,1.276 -0.502,-0.387 -0.422,-1.058 0.189,-1.579 0.411,-3.153 0.398,-4.747 -0.024,-3.045 -0.515,-5.96 -1.274,-8.894 -1.778,-6.872 -3.181,-13.912 -1.422,-20.944 0.364,-1.457 0.839,-2.894 1.462,-4.261 0.189,-0.414 0.55,-1.568 1.068,-1.706 1.867,-0.499 3.28,-0.643 4.771,-2.032 0.926,-0.863 1.621,-0.391 2.716,0.047 3.318,1.328 6.193,2.998 8.544,5.733 3.304,3.843 4.668,8.342 3.87,13.376 m -3.509,-6.285 c -0.294,-2.568 -1.905,-4.868 -3.55,-6.775 -1.192,-1.382 -2.805,-3.176 -4.572,-3.805 -0.637,-0.227 0.116,1.046 0.21,1.186 0.547,0.823 1.221,1.549 1.847,2.31 0.926,1.126 1.729,2.308 2.271,3.671 1.8,4.525 1.391,10.009 -1.273,14.085 -1.45,2.22 -3.441,4.095 -5.447,5.807 -0.97,0.827 -1.951,1.608 -2.767,2.598 -0.188,0.228 -1.854,2.409 -1.336,2.732 0.167,0.104 3.809,-3.726 4.205,-4.025 1.506,-1.137 3.054,-2.189 4.448,-3.469 1.887,-1.733 3.825,-3.67 4.906,-6.027 1.185,-2.583 1.378,-5.495 1.058,-8.288"
           style="fill:#ffffff;fill-opacity:1;fill-rule:nonzero;stroke:none"
           transform="matrix(0.35277776,0,0,-0.35277776,-114.00764,70.337475)"
           clip-path="url(#clipPath132)" /><path
           id="path133"
           d="m 381.9193,125.8541 c 0.547,-0.364 0.668,-2.49 0.668,-4.434 0,-1.944 0.182,-10.326 -0.425,-12.573 -0.607,-2.247 -2.004,-4.738 -3.523,-6.924 -1.518,-2.187 -3.28,-6.803 -3.219,-9.658 0.06,-2.855 1.701,-7.531 2.976,-9.475 1.28,-1.951 3.454,-4.67 2.976,-5.285 -0.85,-1.093 -4.312,2.673 -6.134,4.859 -1.823,2.187 -3.645,6.621 -3.705,10.083 -0.061,3.463 1.882,6.682 3.28,8.625 1.397,1.944 4.13,5.285 4.859,6.803 0.728,1.519 1.518,3.158 1.761,5.285 0.243,2.125 0,9.718 0,9.718 0,0 -0.061,3.34 0.486,2.976"
           style="fill:#ffffff;fill-opacity:1;fill-rule:nonzero;stroke:none"
           transform="matrix(0.35277776,0,0,-0.35277776,-114.00764,70.337475)"
           clip-path="url(#clipPath134)" /><path
           id="path135"
           d="m 380.4615,122.2705 c 0.547,-0.243 0.607,-0.911 0.607,-1.579 0,-0.668 -0.182,-3.402 -0.364,-6.074 -0.182,-2.673 -2.308,-4.92 -3.887,-6.499 -1.58,-1.579 -6.135,-6.499 -7.836,-8.929 -1.7,-2.43 -2.548,-5.63 -2.369,-8.321 0.183,-2.734 0.851,-5.406 3.402,-8.261 2.551,-2.855 4.312,-4.191 5.649,-4.859 1.336,-0.668 2.672,-1.154 2.368,-1.762 -0.303,-0.607 -1.579,-0.181 -2.976,0.304 -1.397,0.486 -6.134,2.43 -8.868,5.528 -2.733,3.097 -4.13,7.228 -4.009,11.176 0.122,3.948 1.215,5.588 3.037,8.139 1.823,2.551 6.864,6.316 8.443,7.288 1.579,0.972 3.705,2.612 4.738,3.948 1.032,1.337 1.579,2.43 1.518,4.252 -0.06,1.822 0.122,3.462 0.061,4.07 -0.061,0.607 -0.061,1.822 0.486,1.579"
           style="fill:#ffffff;fill-opacity:1;fill-rule:nonzero;stroke:none"
           transform="matrix(0.35277776,0,0,-0.35277776,-114.00764,70.337475)"
           clip-path="url(#clipPath136)" /><path
           id="path137"
           d="m 380.6136,74.6596 c 0.247,0.01 0.091,-1.06 -0.345,-1.591 -0.436,-0.531 -1.185,-0.851 -1.276,-0.637 -0.092,0.214 0.54,0.337 1.005,0.853 0.426,0.475 0.313,1.363 0.616,1.375"
           style="fill:#ffffff;fill-opacity:1;fill-rule:nonzero;stroke:none"
           transform="matrix(0.35277776,0,0,-0.35277776,-114.00764,70.337475)"
           clip-path="url(#clipPath138)" /><path
           id="path139"
           d="m 385.5294,74.6877 c -0.247,0.01 -0.091,-1.06 0.345,-1.591 0.436,-0.531 1.186,-0.85 1.276,-0.637 0.092,0.214 -0.54,0.337 -1.005,0.854 -0.426,0.474 -0.313,1.362 -0.616,1.374"
           style="fill:#ffffff;fill-opacity:1;fill-rule:nonzero;stroke:none"
           transform="matrix(0.35277776,0,0,-0.35277776,-114.00764,70.337475)"
           clip-path="url(#clipPath140)" /><path
           id="path141"
           d="m 383.3442,73.5266 c 0,-0.935 0.048,-1.692 -0.156,-1.692 -0.252,0 -0.157,0.757 -0.157,1.692 0,0.935 -0.085,1.693 0.157,1.693 0.222,0 0.156,-0.758 0.156,-1.693"
           style="fill:#ffffff;fill-opacity:1;fill-rule:nonzero;stroke:none"
           transform="matrix(0.35277776,0,0,-0.35277776,-114.00764,70.337475)"
           clip-path="url(#clipPath142)" /></g></g></g></svg>
