<?xml version="1.0" encoding="UTF-8"?> <svg xmlns="http://www.w3.org/2000/svg" viewBox="0 0 660 440"><defs><style>.cls-1{fill:#fff;}.cls-2{fill:none;stroke:#e1e2e6;}.cls-3{fill:#1d63ed;}</style></defs><g id="Layer_2" data-name="Layer 2"><g id="Layer_1-2" data-name="Layer 1"><rect class="cls-1" x="0.5" y="0.5" width="659" height="439" rx="23.5"></rect><rect class="cls-2" x="0.5" y="0.5" width="659" height="439" rx="23.5"></rect><path class="cls-3" d="M242.62,203.58c-.9-6.62-4.54-12.37-11.16-17.56l-3.8-2.57-2.55,3.86a30.26,30.26,0,0,0-4.35,18.47,23.9,23.9,0,0,0,3.35,10.13,26.81,26.81,0,0,1-13.17,2.93H92.75l-.23,1.37c-1.11,6.64-1.09,27.36,12.19,43.28,10.1,12.1,25.23,18.24,45,18.24,42.81,0,74.49-20,89.32-56.26,5.84.12,18.4,0,24.86-12.44.16-.28.55-1.05,1.68-3.41l.62-1.29-3.63-2.45c-3.92-2.67-12.94-3.64-19.88-2.3Zm-55.37-44.31h-18v16.55h18Zm0,19.86h-18v16.55h18Zm-21.24,0H148v16.55h18Zm-21.24,0h-18v16.55h18ZM123.53,199h-18v16.55h18Zm21.24,0h-18v16.55h18ZM166,199H148v16.55h18Zm21.24,0h-18v16.55h18Zm21.24,0h-18v16.55h18Zm109.22-3.7a4.36,4.36,0,0,0-3.26,1.32,4.56,4.56,0,0,0-1.3,3.34v22.39a24.23,24.23,0,0,0-32.79,1.84,25.57,25.57,0,0,0,0,35.55,24.19,24.19,0,0,0,34.77,0A24.29,24.29,0,0,0,322.32,242V200a4.54,4.54,0,0,0-4.61-4.66ZM312,248.05a16,16,0,0,1-3.29,5,15.67,15.67,0,0,1-4.88,3.41,14.41,14.41,0,0,1-6,1.26,14.59,14.59,0,0,1-6.06-1.26,15.55,15.55,0,0,1-4.87-3.39,16.08,16.08,0,0,1-3.26-5,16,16,0,0,1,0-12.21,16,16,0,0,1,3.26-5,15.78,15.78,0,0,1,4.87-3.39,14.49,14.49,0,0,1,6.06-1.26,14.28,14.28,0,0,1,6,1.26,15.44,15.44,0,0,1,4.88,3.41,16.45,16.45,0,0,1,3.29,5A16,16,0,0,1,312,248ZM518.58,224.2a24.19,24.19,0,0,0-34.77,0,25.57,25.57,0,0,0,0,35.55A24.2,24.2,0,0,0,517.25,261a5,5,0,0,0,0-6.71A4.45,4.45,0,0,0,514,253a4.6,4.6,0,0,0-3,1.17,14.23,14.23,0,0,1-4.48,2.7,15.14,15.14,0,0,1-5.31.89,14.59,14.59,0,0,1-4.89-.81,15.72,15.72,0,0,1-4.29-2.26,15.32,15.32,0,0,1-3.4-3.51,15.16,15.16,0,0,1-2.19-4.52h34.75A4.54,4.54,0,0,0,525.8,242a25.7,25.7,0,0,0-1.8-9.66,24.49,24.49,0,0,0-5.39-8.1Zm-32.17,13.11a15.06,15.06,0,0,1,2.15-4.52,15.83,15.83,0,0,1,3.42-3.51,16,16,0,0,1,4.34-2.27,15,15,0,0,1,4.87-.81A14.74,14.74,0,0,1,506,227a15.68,15.68,0,0,1,7.72,5.78,15.24,15.24,0,0,1,2.22,4.52ZM566.71,220a8.71,8.71,0,0,0-3.09-1.91,17.93,17.93,0,0,0-4.08-.95,32.4,32.4,0,0,0-4.15-.27,23.42,23.42,0,0,0-8.25,1.44,24.93,24.93,0,0,0-7.16,4.12v-.89a4.51,4.51,0,0,0-1.34-3.3,4.36,4.36,0,0,0-3.22-1.37,4.47,4.47,0,0,0-3.27,1.37,4.53,4.53,0,0,0-1.34,3.3v40.92a4.5,4.5,0,0,0,1.34,3.3,4.42,4.42,0,0,0,3.27,1.37,4.28,4.28,0,0,0,3.22-1.37,4.53,4.53,0,0,0,1.34-3.3V242a15.83,15.83,0,0,1,1.21-6.15,15.67,15.67,0,0,1,3.28-5,15.4,15.4,0,0,1,4.89-3.36,14.67,14.67,0,0,1,6-1.24,16.06,16.06,0,0,1,6,1.12,4.88,4.88,0,0,0,1.93.5,4.52,4.52,0,0,0,1.8-.36,4.61,4.61,0,0,0,1.45-1,4.86,4.86,0,0,0,1-1.51,4.49,4.49,0,0,0,.38-1.84,4.21,4.21,0,0,0-1.23-3.14ZM369.49,224.2a24.19,24.19,0,0,0-34.77,0,25.57,25.57,0,0,0,0,35.55,24.21,24.21,0,0,0,34.77,0A24.31,24.31,0,0,0,376.68,242a26.51,26.51,0,0,0-1.82-9.65A24.71,24.71,0,0,0,369.49,224.2Zm-3.19,23.85a15.85,15.85,0,0,1-3.28,5,15.59,15.59,0,0,1-4.89,3.41,14.3,14.3,0,0,1-6,1.26,14.59,14.59,0,0,1-6.06-1.26,15.44,15.44,0,0,1-4.87-3.39,16.1,16.1,0,0,1-3.27-5,16,16,0,0,1,0-12.21,16,16,0,0,1,3.27-5,15.67,15.67,0,0,1,4.87-3.39,14.49,14.49,0,0,1,6.06-1.26,14.26,14.26,0,0,1,6,1.26,15.48,15.48,0,0,1,4.89,3.41,16.24,16.24,0,0,1,3.28,5,15.83,15.83,0,0,1,0,12.14ZM471.65,221.5a4.55,4.55,0,0,0-.37-1.79,5.26,5.26,0,0,0-1-1.5,4.25,4.25,0,0,0-1.46-1,4.66,4.66,0,0,0-1.79-.37,4.33,4.33,0,0,0-2.46.72L438.36,235V200a4.6,4.6,0,0,0-1.34-3.35,4.37,4.37,0,0,0-3.22-1.37,4.47,4.47,0,0,0-3.27,1.37,4.56,4.56,0,0,0-1.34,3.35v62.39a4.61,4.61,0,0,0,1.34,3.33,4.4,4.4,0,0,0,3.27,1.39,4.28,4.28,0,0,0,3.22-1.39,4.65,4.65,0,0,0,1.34-3.33v-16.2l5.35-3.59L464,265.87a4.2,4.2,0,0,0,3.07,1.21,4.36,4.36,0,0,0,1.8-.37,4.28,4.28,0,0,0,1.45-1,5,5,0,0,0,1-1.51,4.43,4.43,0,0,0,.38-1.79,4.78,4.78,0,0,0-1.28-3.27l-18.87-21.73,18.38-12.22a4.19,4.19,0,0,0,1.75-3.72Zm-76.18,9.32a15.49,15.49,0,0,1,4.91-3.36,14.71,14.71,0,0,1,6-1.24,14.27,14.27,0,0,1,5.36,1,17.25,17.25,0,0,1,4.69,2.91,4.64,4.64,0,0,0,3,1.08,4.33,4.33,0,0,0,3.26-1.34,4.88,4.88,0,0,0-.29-6.9,23.12,23.12,0,0,0-16-6.11A23.46,23.46,0,0,0,389,224.21a25.57,25.57,0,0,0,0,35.55,23.48,23.48,0,0,0,17.39,7.37,23.19,23.19,0,0,0,16-6.11,4.8,4.8,0,0,0,1.45-3.46,4.59,4.59,0,0,0-1.29-3.34,4.39,4.39,0,0,0-3.27-1.32,4.82,4.82,0,0,0-2.89,1,15.55,15.55,0,0,1-4.65,2.89,14.39,14.39,0,0,1-5.36,1,14.71,14.71,0,0,1-6-1.24,15.82,15.82,0,0,1-4.91-3.36,15.4,15.4,0,0,1-3.32-5,16.29,16.29,0,0,1,0-12.32,15.55,15.55,0,0,1,3.32-5Z"></path></g></g></svg> 