<svg version="1.1" xmlns="http://www.w3.org/2000/svg" viewBox="0 0 448.01057126184764 336.5010503408303" width="448.01057126184764" height="336.5010503408303">
  <!-- svg-source:excalidraw -->
  
  <defs>
    <style class="style-fonts">
      @font-face {
        font-family: "Virgil";
        src: url("https://excalidraw.com/Virgil.woff2");
      }
      @font-face {
        font-family: "Cascadia";
        src: url("https://excalidraw.com/Cascadia.woff2");
      }
      @font-face {
        font-family: "Assistant";
        src: url("https://excalidraw.com/Assistant-Regular.woff2");
      }
    </style>
    
  </defs>
  <g stroke-linecap="round"><g transform="translate(11.208501553051178 325.33951767403533) rotate(0 185.2292810782401 -0.7042938444039635)"><path d="M0.16 -0.95 C62 -1.23, 309.92 -1.56, 371.61 -1.61 M-1.21 1.16 C60.52 1.07, 309.48 -0.01, 371.26 -0.17" stroke="#1e1e1e" stroke-width="4" fill="none"></path></g></g><mask></mask><g stroke-linecap="round"><g transform="translate(177.4218488323845 21.084576891526943) rotate(0 2.817175377615854 152.1274703912542)"><path d="M0.53 1.12 C1.55 51.58, 5.9 252.56, 6.82 303.13 M-0.64 0.66 C0.26 51.19, 5.46 253.19, 6.5 304.08" stroke="#1e1e1e" stroke-width="4" fill="none"></path></g></g><mask></mask><g stroke-linecap="round"><g transform="translate(178.8304365211925 23.90175226914274) rotate(0 107.75695819380508 -5.634350755231637)"><path d="M-0.22 0.8 C35.72 -1.02, 179.74 -8.32, 215.85 -10.24 M-1.8 0.18 C33.99 -2.01, 178.75 -9.66, 215.07 -11.82" stroke="#1e1e1e" stroke-width="4" fill="none"></path></g></g><mask></mask><g stroke-linecap="round"><g transform="translate(391.5271775311867 9.81587538106367) rotate(0 0.7042938444039919 26.763166087350257)"><path d="M-1.03 0.81 C-0.98 9.91, 0 44.72, 0.55 53.64 M0.63 0.18 C1.03 9.58, 2.59 46.54, 2.81 55.24" stroke="#1e1e1e" stroke-width="4" fill="none"></path></g></g><mask></mask><g stroke-linecap="round" transform="translate(352.0867222445652 63.34220755576418) rotate(0 42.96192450864123 42.2576306642373)"><path d="M62.34 5.69 C69.14 8.44, 76.23 15.35, 80.29 21.79 C84.34 28.22, 87.19 36.83, 86.66 44.29 C86.14 51.75, 82.03 60.31, 77.14 66.54 C72.24 72.77, 64.45 78.93, 57.3 81.68 C50.15 84.44, 41.79 84.55, 34.25 83.07 C26.71 81.58, 17.48 77.96, 12.07 72.75 C6.66 67.54, 3.35 59.22, 1.77 51.82 C0.18 44.41, 0 35.41, 2.55 28.31 C5.1 21.21, 11 14.08, 17.06 9.24 C23.12 4.4, 30.6 -0.44, 38.9 -0.72 C47.19 -1, 61.42 5.69, 66.83 7.54 C72.24 9.39, 71.56 9.95, 71.35 10.38 M40.24 -0.65 C47.44 -1.44, 57.23 2.61, 63.94 6.76 C70.65 10.9, 76.81 17.66, 80.49 24.2 C84.18 30.75, 86.53 38.76, 86.05 46.03 C85.57 53.3, 82.27 61.6, 77.59 67.83 C72.91 74.05, 65.54 80.85, 57.97 83.39 C50.4 85.93, 39.69 85.17, 32.18 83.07 C24.68 80.96, 18.23 76.09, 12.94 70.76 C7.65 65.43, 2.12 58.58, 0.44 51.09 C-1.24 43.59, 0.03 32.86, 2.85 25.8 C5.68 18.74, 11 13.03, 17.38 8.75 C23.76 4.46, 37.31 1.62, 41.16 0.09 C45.01 -1.44, 40.49 -0.96, 40.48 -0.43" stroke="#1e1e1e" stroke-width="4" fill="none"></path></g><g stroke-linecap="round"><g transform="translate(397.1615282864184 153.49181963947044) rotate(0 0.7042938444039919 37.32757375340958)"><path d="M-0.16 -0.8 C0.04 11.73, 1.45 62.92, 1.89 75.34 M-1.71 1.4 C-1.69 13.56, 0.54 61.39, 1.2 73.58" stroke="#1e1e1e" stroke-width="4" fill="none"></path></g></g><mask></mask><g stroke-linecap="round"><g transform="translate(399.97870366403413 228.1469671462896) rotate(0 -4.225763066423724 30.988929153773995)"><path d="M0.31 0.44 C-1.18 10.57, -7.46 51.49, -8.74 61.71 M-0.98 -0.38 C-2.68 9.85, -8.75 52.55, -9.84 63.11" stroke="#1e1e1e" stroke-width="4" fill="none"></path></g></g><mask></mask><g stroke-linecap="round"><g transform="translate(402.7958790416501 232.37273021271332) rotate(0 15.494464576886912 24.65028455413841)"><path d="M-0.96 0.51 C4.02 9.09, 25.55 42.18, 30.78 50.33 M0.73 -0.27 C5.46 8.09, 24.96 40.24, 29.73 48.75" stroke="#1e1e1e" stroke-width="4" fill="none"></path></g></g><mask></mask><g stroke-linecap="round"><g transform="translate(398.5701159752264 157.71758270589416) rotate(0 -12.677289199271172 30.28463530937003)"><path d="M-0.61 -0.19 C-4.66 9.96, -21.37 49.85, -25.44 59.88 M1.26 -1.33 C-2.84 9.05, -21.94 50.67, -26.43 61.05" stroke="#1e1e1e" stroke-width="4" fill="none"></path></g></g><mask></mask><g stroke-linecap="round"><g transform="translate(395.7529405976104 163.35193346112575) rotate(0 17.607346110098888 21.833109176522612)"><path d="M0.45 -0.79 C6.62 6.48, 30.07 36.41, 36.05 43.98 M-0.78 1.41 C5.39 8.28, 29.39 35.13, 35.54 42.02" stroke="#1e1e1e" stroke-width="4" fill="none"></path></g></g><mask></mask></svg>