<svg width="146" height="111" viewBox="0 0 146 111" fill="none" xmlns="http://www.w3.org/2000/svg">
<g clip-path="url(#clip0_1_17)">
<path fill-rule="evenodd" clip-rule="evenodd" d="M142.156 110.276C140.037 110.276 138.313 108.566 138.313 106.445C138.313 104.338 140.037 102.613 142.156 102.613C144.274 102.613 146 104.338 146 106.445C146 108.566 144.274 110.276 142.156 110.276ZM142.156 103.345C140.433 103.345 139.036 104.733 139.036 106.445C139.036 108.17 140.433 109.559 142.156 109.559C143.881 109.559 145.275 108.17 145.275 106.445C145.275 104.733 143.881 103.345 142.156 103.345ZM143.134 108.611L142.043 106.749H141.408V108.611H140.685V104.276H142.293C143.363 104.276 143.938 104.635 143.938 105.547C143.938 106.334 143.442 106.646 142.768 106.717L143.966 108.611H143.134ZM143.207 105.485C143.207 104.969 142.717 104.873 142.293 104.873H141.408V106.148H142.279C142.79 106.148 143.207 106.075 143.207 105.485ZM0 0H134.562V110.16H0V0Z" fill="#FF4713"/>
<path fill-rule="evenodd" clip-rule="evenodd" d="M88.0194 78.033H111.061V63.343H103.454L103.46 71.3741C103.46 73.5275 101.705 75.2809 99.5418 75.2809C97.3801 75.2809 95.6239 73.5275 95.6239 71.3741V31.8995H88.0194V78.033Z" fill="white"/>
<path fill-rule="evenodd" clip-rule="evenodd" d="M59.6819 78.033V31.8995H74.8855C77.8191 31.8995 82.4864 34.3081 82.4864 39.4165V47.275C82.4864 49.5727 80.4712 53.6447 77.4772 53.6447C80.4712 53.6447 82.4864 56.2242 82.4864 58.1784V72.0069C82.4864 74.3589 80.5876 78.033 74.8855 78.033H59.6819ZM71.4297 51.7616C74.1943 51.7616 74.8855 51.2962 74.8855 44.0646C74.8855 36.835 74.1943 36.2588 71.4297 36.2588H67.2772V51.7505L71.4297 51.7616ZM74.8855 65.0064C74.8855 57.7728 74.8855 55.6551 71.8841 55.6551H67.2772V74.2426L71.8841 74.252C74.8855 74.252 74.8855 72.234 74.8855 65.0064Z" fill="white"/>
<path fill-rule="evenodd" clip-rule="evenodd" d="M30.875 69.9981C30.875 73.3248 33.8706 78.7182 42.3935 78.7182C50.9185 78.7182 53.9161 74.5919 53.9161 69.9981V31.8995H46.3094L46.3133 71.3215C46.3133 73.4749 44.5627 75.2809 42.3993 75.2809C40.2337 75.2809 38.4795 73.5275 38.4795 71.3741L38.4739 63.343H30.875V69.9981Z" fill="white"/>
<path fill-rule="evenodd" clip-rule="evenodd" d="M34.6762 58.3172C37.1028 58.3172 39.0748 56.3516 39.0748 53.9356C39.0748 51.5081 37.1028 49.5503 34.6762 49.5503C32.2422 49.5503 30.2757 51.5081 30.2757 53.9356C30.2757 56.3516 32.2422 58.3172 34.6762 58.3172Z" fill="white"/>
<path fill-rule="evenodd" clip-rule="evenodd" d="M34.6762 47.8493L41.7025 31.8995H27.6483L34.6762 47.8493Z" fill="white"/>
</g>
<defs>
<clipPath id="clip0_1_17">
<rect width="146" height="110.262" fill="white"/>
</clipPath>
</defs>
</svg>
